<svg xmlns="http://www.w3.org/2000/svg" width="95.586" height="95.419" viewBox="0 0 95.586 95.419"><g transform="translate(-1045 -1362)"><path d="M130.2,48.553,135.35,43.4l-10.9-10.9L119.3,37.65a27.454,27.454,0,0,0-5.672-2.337V28.166a13.719,13.719,0,0,0,7.709-12.483A15.439,15.439,0,0,0,111.056,1.16L109,.432v12.6l-3.083,1.028-3.083-1.028V.432l-2.057.728A15.439,15.439,0,0,0,90.5,15.683a13.719,13.719,0,0,0,7.709,12.483v7.147a27.539,27.539,0,0,0-5.672,2.337L87.385,32.5l-10.9,10.9,5.151,5.152a27.416,27.416,0,0,0-2.351,5.672H72V69.642h7.283a27.5,27.5,0,0,0,2.351,5.672l-5.151,5.152,10.9,10.9,5.152-5.151a27.417,27.417,0,0,0,5.672,2.351v7.283h15.417V88.568a27.5,27.5,0,0,0,5.672-2.351l5.152,5.151,10.9-10.9L130.2,75.314a27.417,27.417,0,0,0,2.351-5.672h7.283V54.225h-7.283A27.422,27.422,0,0,0,130.2,48.553ZM93.584,15.683A12.351,12.351,0,0,1,99.751,5.015V15.252l6.167,2.055,6.167-2.055V5.015a12.351,12.351,0,0,1,6.167,10.667c0,4.522-2.36,8.029-6.827,10.143l-.882.418v24.9h3.083V48.573a15.407,15.407,0,0,1,0,26.692V54.225h-3.083V76.64a15.4,15.4,0,0,1-9.25,0v-50.4l-.882-.418C95.944,23.712,93.584,20.2,93.584,15.683Zm43.168,50.876h-6.6l-.285,1.179a24.424,24.424,0,0,1-2.912,7.022l-.634,1.036,4.67,4.668-6.541,6.541-4.668-4.67-1.036.634a24.442,24.442,0,0,1-7.022,2.912l-1.181.287v6.6h-9.25v-6.6l-1.179-.285a24.424,24.424,0,0,1-7.022-2.912l-1.036-.634-4.668,4.67-6.541-6.541,4.67-4.668-.634-1.036a24.442,24.442,0,0,1-2.912-7.022l-.287-1.181h-6.6v-9.25h6.6l.285-1.179a24.424,24.424,0,0,1,2.912-7.022l.634-1.036L80.843,43.4l6.541-6.541,4.668,4.67,1.036-.634a24.34,24.34,0,0,1,5.118-2.367v6.592a18.5,18.5,0,1,0,15.417,0V38.531a24.5,24.5,0,0,1,5.118,2.367l1.036.634,4.668-4.67,6.541,6.541-4.67,4.668.634,1.036a24.442,24.442,0,0,1,2.912,7.022l.288,1.179h6.6ZM98.209,48.575v26.69a15.406,15.406,0,0,1,0-26.69Z" transform="translate(986.875 1361.568)"/><path d="M6.167,127.062V71.277a1.544,1.544,0,0,1,1.542-1.542H20.326a4.625,4.625,0,1,0,0-3.083H7.709a4.631,4.631,0,0,0-4.625,4.625v55.785a4.625,4.625,0,1,0,3.083,0Zm18.5-60.41a1.542,1.542,0,1,1-1.542,1.542A1.544,1.544,0,0,1,24.667,66.651ZM4.625,132.945A1.542,1.542,0,1,1,6.167,131.4,1.544,1.544,0,0,1,4.625,132.945Z" transform="translate(1045 1310.599)" fill="#f1607a"/><rect width="3.083" height="3.083" transform="translate(1054.25 1383.417)" fill="#f1607a"/><rect width="3.083" height="3.083" transform="translate(1054.25 1389.584)" fill="#f1607a"/><rect width="3.083" height="3.083" transform="translate(1054.25 1395.751)" fill="#f1607a"/><path d="M370.209,127.062V71.277a4.631,4.631,0,0,0-4.625-4.625H352.967a4.625,4.625,0,1,0,0,3.083h12.617a1.544,1.544,0,0,1,1.542,1.542v55.785a4.625,4.625,0,1,0,3.083,0ZM348.625,69.735a1.542,1.542,0,1,1,1.542-1.542A1.544,1.544,0,0,1,348.625,69.735Zm20.042,63.21a1.542,1.542,0,1,1,1.542-1.542A1.544,1.544,0,0,1,368.667,132.945Z" transform="translate(767.293 1310.599)" fill="#f1607a"/><rect width="3.083" height="3.083" transform="translate(1128.252 1383.417)" fill="#f1607a"/><rect width="3.083" height="3.083" transform="translate(1128.252 1389.584)" fill="#f1607a"/><rect width="3.083" height="3.083" transform="translate(1128.252 1395.751)" fill="#f1607a"/><rect width="3.083" height="3.083" transform="translate(1091.251 1432.752)" fill="#f1607a"/><rect width="3.083" height="3.083" transform="translate(1091.251 1426.585)" fill="#f1607a"/><rect width="3.083" height="3.083" transform="translate(1091.251 1420.418)" fill="#f1607a"/></g></svg>