<svg xmlns="http://www.w3.org/2000/svg" width="122.013" height="122.01" viewBox="0 0 122.013 122.01"><g transform="translate(0 -0.006)"><g transform="translate(0 0.006)"><path d="M114.864,65.2V53.863a3.575,3.575,0,0,0-3.575-3.575,107.834,107.834,0,0,0-20.774,1.9,32.274,32.274,0,0,0-13.42-7.77,25.022,25.022,0,1,0-32.178,0,32.279,32.279,0,0,0-13.42,7.77,107.853,107.853,0,0,0-20.774-1.9,3.575,3.575,0,0,0-3.575,3.575V65.2A10.741,10.741,0,0,0,0,75.311V82.46A10.741,10.741,0,0,0,7.149,92.569v11.339a3.575,3.575,0,0,0,3.575,3.575c18.69,0,34.038,4.428,48.3,13.936a3.586,3.586,0,0,0,3.966,0c14.262-9.508,29.61-13.936,48.3-13.936a3.575,3.575,0,0,0,3.575-3.575V92.569a10.741,10.741,0,0,0,7.149-10.109V75.311A10.742,10.742,0,0,0,114.864,65.2ZM43.133,25.266A17.873,17.873,0,1,1,61.006,43.139,18.014,18.014,0,0,1,43.133,25.266ZM10.724,86.035A3.579,3.579,0,0,1,7.149,82.46V75.311a3.575,3.575,0,1,1,7.149,0V82.46A3.579,3.579,0,0,1,10.724,86.035Zm46.708,26c-12.977-7.421-26.9-11.172-43.133-11.646V92.569A10.741,10.741,0,0,0,21.447,82.46V75.311A10.741,10.741,0,0,0,14.3,65.2V57.488c16.8.482,30.3,4.437,43.133,12.61Zm3.575-48.125a84.953,84.953,0,0,0-20.8-9.56,25.074,25.074,0,0,1,13.647-4.056h14.3A25.074,25.074,0,0,1,81.8,54.345,84.949,84.949,0,0,0,61.006,63.905Zm46.708,36.479c-16.232.474-30.157,4.226-43.133,11.646V70.1c12.837-8.174,26.337-12.131,43.133-12.613V65.2a10.741,10.741,0,0,0-7.149,10.109V82.46a10.741,10.741,0,0,0,7.149,10.109Zm7.149-17.924a3.575,3.575,0,0,1-7.149,0V75.311a3.575,3.575,0,0,1,7.149,0Z" transform="translate(0 -0.006)" fill="#f1607a"/></g></g></svg>