<svg xmlns="http://www.w3.org/2000/svg" width="84.953" height="84.953" viewBox="0 0 84.953 84.953"><g transform="translate(14.159 41.06)"><path d="M140.553,247.467H86.75a1.416,1.416,0,0,0,0,2.832h53.8a1.416,1.416,0,1,0,0-2.832Z" transform="translate(-85.334 -247.467)"/></g><g transform="translate(14.172 14.172)"><path d="M133.741,93.7a28.3,28.3,0,1,0,0,40.047A28.349,28.349,0,0,0,133.741,93.7Zm-2,38.044a25.474,25.474,0,1,1,0-36.042A25.515,25.515,0,0,1,131.739,131.74Z" transform="translate(-85.414 -85.415)"/></g><g transform="translate(20.753 14.172)"><path d="M168.175,95.157c-.433-.5-.879-.988-1.352-1.461a28.349,28.349,0,0,0-40.047,0c-.473.473-.919.964-1.352,1.461a1.416,1.416,0,0,0,.614,2.271,62.512,62.512,0,0,0,41.522,0,1.416,1.416,0,0,0,.615-2.271ZM146.8,98.144a62.422,62.422,0,0,1-17.74-2.724,25.516,25.516,0,0,1,35.479,0A62.422,62.422,0,0,1,146.8,98.144Z" transform="translate(-125.076 -85.415)"/></g><g transform="translate(41.061 14.167)"><path d="M255.246,90.211a31.784,31.784,0,0,0-5.607-4.609,1.416,1.416,0,0,0-2.172,1.2v53.795a1.417,1.417,0,0,0,2.172,1.2,31.906,31.906,0,0,0,5.607-4.617,32.81,32.81,0,0,0,0-46.965Zm-2,44.963a36.217,36.217,0,0,1-2.945,2.67v-48.3a35.485,35.485,0,0,1,2.945,2.666,29.98,29.98,0,0,1,0,42.96Z" transform="translate(-247.467 -85.384)"/></g><g transform="translate(26.218 14.167)"><path d="M174.954,85.559a1.418,1.418,0,0,0-1.44.042,31.85,31.85,0,0,0-5.607,4.609,32.809,32.809,0,0,0,0,46.965,31.784,31.784,0,0,0,5.607,4.609,1.416,1.416,0,0,0,2.172-1.2V86.8A1.418,1.418,0,0,0,174.954,85.559Zm-2.1,52.28a35.247,35.247,0,0,1-2.945-2.666,29.98,29.98,0,0,1,0-42.96,35.511,35.511,0,0,1,2.945-2.666v48.293Z" transform="translate(-158.012 -85.383)"/></g><g transform="translate(20.753 55.219)"><path d="M168.474,337.319a1.415,1.415,0,0,0-.913-.971,62.512,62.512,0,0,0-41.522,0,1.416,1.416,0,0,0-.614,2.271c.433.5.879.988,1.352,1.461a28.347,28.347,0,0,0,40.047,0c.473-.473.919-.964,1.352-1.461A1.416,1.416,0,0,0,168.474,337.319Zm-39.414,1.037a59.121,59.121,0,0,1,35.479,0A25.516,25.516,0,0,1,129.06,338.356Z" transform="translate(-125.076 -332.8)"/></g><path d="M42.476,0A42.476,42.476,0,0,0,12.76,72.827a1.416,1.416,0,1,0,1.982-2.022A39.645,39.645,0,0,1,41.06,2.857V9.911a1.416,1.416,0,1,0,2.832,0v-8.5A1.416,1.416,0,0,0,42.476,0Z"/><g transform="translate(11.327 67.962)"><path d="M75.345,409.6a7.079,7.079,0,1,0,7.079,7.079A7.087,7.087,0,0,0,75.345,409.6Zm0,11.327a4.248,4.248,0,1,1,4.248-4.248A4.253,4.253,0,0,1,75.345,420.927Z" transform="translate(-68.266 -409.6)"/></g><g transform="translate(41.06 11.721)"><path d="M278.6,71.042a1.416,1.416,0,0,0-1.981,2.023A39.645,39.645,0,0,1,250.3,141.013v-7.054a1.416,1.416,0,0,0-2.832,0v8.5a1.416,1.416,0,0,0,1.416,1.416A42.476,42.476,0,0,0,278.6,71.042Z" transform="translate(-247.467 -70.639)" fill="#f1607a"/></g><g transform="translate(59.467 2.832)"><path d="M365.479,17.067a7.079,7.079,0,1,0,7.079,7.079A7.088,7.088,0,0,0,365.479,17.067Zm0,11.327a4.248,4.248,0,1,1,4.248-4.248A4.253,4.253,0,0,1,365.479,28.394Z" transform="translate(-358.4 -17.067)" fill="#f1607a"/></g></svg>